<svg xmlns="http://www.w3.org/2000/svg" xmlns:xlink="http://www.w3.org/1999/xlink" version="1.0" x="0px" y="0px" viewBox="0 0 1200 1500" enable-background="new 0 0 1200 1200" xml:space="preserve"><g><g><g><g><path d="M698.427,368.849c0.727,0.052,1.401,0.104,2.128,0.156c-0.311-0.052-0.623-0.104-0.986-0.156H698.427z"/></g><g><path d="M331.42,501.32c0-0.882,0-1.764,0.052-2.646c0,0.208-0.052,0.415-0.052,0.675      C331.368,499.97,331.42,500.645,331.42,501.32z"/></g><g><path d="M461.597,483.633c12.16,0,22.052-9.893,22.052-22.053c0-3.434-0.79-6.686-2.196-9.587      c7.494,1.869,14.787,4.801,21.641,8.819l1.31,0.768c0-23.642-19.166-42.808-42.808-42.808      c-23.642,0-42.808,19.166-42.808,42.808l1.31-0.768c6.853-4.018,14.146-6.95,21.641-8.819c-1.406,2.901-2.196,6.153-2.196,9.587      C439.544,473.74,449.437,483.633,461.597,483.633z"/></g><g><path d="M190.818,766.262c16.927,5.988,32.916,11.645,65.763,11.645c32.851,0,48.841-5.656,65.771-11.645      c17.298-6.119,35.186-12.446,70.439-12.446c1.223,0,2.42,0.009,3.598,0.025l1.545-0.025c3.642,0,7.09,0.071,10.38,0.199      c1.453-11.125,3.964-21.922,7.425-32.273c6.745-20.133,8.873-41.614,4.722-62.474c-1.453-7.109-3.373-14.165-5.811-21.067      c-0.467-1.297-0.882-2.542-1.297-3.788c-0.726-2.076-1.453-4.151-2.283-6.227c-1.868-4.878-4.047-9.651-6.382-14.321      c-9.651-18.835-23.142-35.595-39.902-48.723c-1.141-0.882-2.231-1.816-3.373-2.698c-0.156-0.104-0.259-0.26-0.415-0.363      c-0.83-0.675-1.66-1.401-2.491-2.076c-0.415-0.415-0.882-0.778-1.297-1.193c-1.245-1.09-2.439-2.179-3.632-3.321      c-0.519-0.467-0.986-0.986-1.505-1.453c-0.882-0.934-1.816-1.816-2.698-2.75c-0.675-0.727-1.349-1.505-2.024-2.231      c-0.623-0.675-1.245-1.349-1.816-2.024c-0.726-0.83-1.453-1.66-2.127-2.542c-0.675-0.83-1.349-1.66-2.024-2.491      c-0.623-0.778-1.245-1.609-1.816-2.387c-0.519-0.675-1.038-1.349-1.505-2.024c-0.83-1.141-1.609-2.283-2.387-3.476      c-0.415-0.571-0.83-1.193-1.194-1.816c-0.156-0.26-0.311-0.467-0.467-0.727c-0.675-1.038-1.349-2.128-1.972-3.165      c-0.311-0.571-0.623-1.09-0.934-1.609c-0.675-1.194-1.349-2.439-2.024-3.684c-0.207-0.363-0.415-0.778-0.623-1.142      c-0.778-1.453-1.505-2.957-2.179-4.462c-0.259-0.467-0.519-0.986-0.727-1.505c-0.727-1.557-1.349-3.113-2.024-4.67      c-0.207-0.467-0.363-0.934-0.571-1.453c-0.623-1.557-1.193-3.165-1.764-4.722c-0.052-0.156-0.104-0.311-0.155-0.467      c-0.623-1.712-1.142-3.425-1.66-5.189c-0.104-0.415-0.259-0.83-0.363-1.245c-0.519-1.712-0.934-3.477-1.401-5.241      c-0.052-0.363-0.156-0.779-0.259-1.142c-0.415-1.868-0.83-3.736-1.141-5.604c-0.052-0.155-0.052-0.259-0.104-0.415      c-0.311-1.401-0.623-2.854-0.727-4.307c-0.052-0.727-0.155-1.453-0.259-2.179c-0.259-1.868-0.467-3.788-0.623-5.656      c0-0.415-0.052-0.778-0.052-1.193c-0.155-1.92-0.259-3.892-0.311-5.863c-0.052-0.156-0.052-0.363-0.052-0.519      c-0.052-1.92-0.052-3.84,0-5.76v-0.934c0-0.156,0-0.363,0.052-0.519c0-0.986,0.104-1.92,0.156-2.854      c0-0.986,0.052-1.972,0.155-2.958c0.052-1.194,0.208-2.335,0.311-3.528c0.104-0.882,0.156-1.712,0.259-2.594      c0.156-1.297,0.363-2.543,0.571-3.84c0.104-0.726,0.207-1.505,0.363-2.231c0.207-1.401,0.519-2.802,0.83-4.151      c0.104-0.623,0.207-1.193,0.311-1.764c0.363-1.557,0.778-3.062,1.142-4.618c0.104-0.415,0.207-0.83,0.311-1.245      c0.467-1.712,0.986-3.373,1.505-5.033c0.104-0.207,0.156-0.467,0.259-0.727c0.571-1.816,1.193-3.632,1.868-5.396      c0.052-0.104,0.052-0.156,0.104-0.259c6.486-17.123,16.5-32.534,29.213-45.35c0.052,0,0.052,0,0.104-0.052      c18.109-13.647,39.694-22.987,63.148-26.307c0.467-0.052,0.882-0.052,1.349-0.104c1.712-0.207,3.476-0.415,5.189-0.571      c0.882-0.104,1.764-0.104,2.646-0.207c1.297-0.104,2.594-0.208,3.892-0.26c0.104,0,0.104,0,0.156,0h0.052      c0.83-0.052,1.66-0.052,2.542-0.052c0.83-0.052,1.609-0.052,2.439-0.052h2.594c0.83,0.052,1.609,0.052,2.439,0.052      c0.882,0.052,1.764,0.104,2.646,0.104c0.778,0.052,1.557,0.104,2.335,0.104c0.882,0.104,1.712,0.207,2.594,0.259      c0.778,0.104,1.609,0.156,2.387,0.208c0.83,0.104,1.66,0.207,2.491,0.311c0.83,0.052,1.557,0.155,2.335,0.311      c0.882,0.104,1.712,0.259,2.542,0.363c0.778,0.104,1.557,0.207,2.335,0.363c0.882,0.208,1.712,0.363,2.594,0.519      c0.727,0.155,1.453,0.259,2.18,0.467c0.83,0.156,1.712,0.363,2.542,0.571c0.727,0.155,1.453,0.363,2.179,0.519      c0.882,0.207,1.764,0.415,2.646,0.727c0.675,0.156,1.297,0.311,1.972,0.519c0.882,0.208,1.764,0.519,2.646,0.778      c0.623,0.207,1.297,0.467,1.972,0.623l2.802,0.986c0.519,0.207,1.142,0.363,1.712,0.623c0.986,0.363,2.024,0.778,3.01,1.141      c0.467,0.208,0.934,0.363,1.401,0.571c0.986,0.363,1.92,0.83,2.854,1.193c0.519,0.207,0.986,0.467,1.505,0.675      c0.934,0.415,1.816,0.83,2.698,1.245c0.519,0.311,1.038,0.519,1.609,0.778c1.349,0.675,2.75,1.401,4.151,2.179h0.052      c1.193,0.571,2.335,1.245,3.528,1.972c21.222,12.453,45.298,19.25,69.893,20.081c0.882,0,4.359,0.052,5.137,0.052h8.095      c1.816,0,3.632,0,5.397-0.104c24.491-0.83,48.516-7.576,69.686-20.029c1.193-0.727,2.335-1.401,3.476-1.972h0.052      c1.401-0.778,2.802-1.505,4.203-2.179c0.571-0.26,1.193-0.519,1.712-0.83c0.882-0.363,1.712-0.83,2.542-1.193      c0.571-0.208,1.141-0.519,1.712-0.727c0.882-0.363,1.764-0.778,2.646-1.141c0.519-0.26,1.038-0.415,1.557-0.623      c0.986-0.363,1.92-0.779,2.906-1.09c0.623-0.259,1.245-0.467,1.816-0.675c0.882-0.259,1.764-0.623,2.698-0.934      c0.675-0.208,1.349-0.415,2.023-0.623c0.882-0.259,1.712-0.571,2.543-0.778c0.726-0.207,1.349-0.363,2.075-0.519      c0.83-0.311,1.712-0.519,2.594-0.727c0.727-0.156,1.453-0.363,2.18-0.519c0.83-0.208,1.712-0.415,2.542-0.571      c0.675-0.207,1.453-0.311,2.231-0.467c0.83-0.156,1.661-0.311,2.542-0.519c0.779-0.156,1.557-0.259,2.335-0.363      c0.83-0.104,1.66-0.26,2.491-0.363c0.778-0.156,1.609-0.26,2.439-0.311c0.778-0.104,1.609-0.208,2.439-0.311      c0.778-0.052,1.557-0.104,2.387-0.208c0.83-0.052,1.712-0.156,2.542-0.259c0.778,0,1.557-0.052,2.387-0.104      c0.882,0,1.764-0.052,2.646-0.104c0.778,0,1.609,0,2.387-0.052h2.646c0.83,0,1.661,0,2.439,0.052c0.83,0,1.66,0,2.542,0.052      c0,0,0,0,0.052,0h0.104c1.297,0.052,2.646,0.156,3.944,0.26c0.882,0.104,1.712,0.104,2.594,0.207      c1.764,0.156,3.476,0.363,5.189,0.571c0.467,0.052,0.934,0.052,1.401,0.104c23.557,3.321,45.299,12.765,63.408,26.567      c12.661,12.765,22.623,28.123,29.057,45.143c0,0.104,0.052,0.156,0.052,0.259c0.675,1.764,1.297,3.58,1.92,5.396      c0.052,0.26,0.156,0.519,0.208,0.727c0.519,1.66,1.037,3.321,1.505,5.033c0.104,0.415,0.207,0.83,0.311,1.245      c0.415,1.557,0.778,3.061,1.142,4.618c0.156,0.571,0.259,1.141,0.363,1.764c0.311,1.349,0.571,2.75,0.83,4.151      c0.104,0.727,0.207,1.505,0.311,2.231c0.207,1.297,0.415,2.543,0.571,3.84c0.104,0.882,0.207,1.712,0.259,2.594      c0.156,1.193,0.26,2.335,0.363,3.528l0.156,2.958c0.052,0.934,0.104,1.868,0.156,2.854v0.882c0.052,0.156,0,0.363,0,0.571      c0.052,1.92,0.052,3.84,0,5.76v0.519c-0.052,1.972-0.156,3.944-0.311,5.863c-0.052,0.415-0.052,0.778-0.104,1.193      c-0.156,1.868-0.363,3.788-0.571,5.656c-0.104,0.675-0.207,1.401-0.259,2.075c-0.104,1.505-0.415,2.958-0.778,4.411      c0,0.156,0,0.259-0.052,0.415c-0.363,1.868-0.727,3.736-1.194,5.604c-0.052,0.363-0.155,0.778-0.259,1.142      c-0.415,1.764-0.882,3.528-1.349,5.241c-0.155,0.415-0.259,0.83-0.415,1.245c-0.467,1.764-1.038,3.476-1.609,5.189      c-0.052,0.155-0.104,0.311-0.156,0.467c-0.571,1.557-1.141,3.165-1.764,4.722c-0.207,0.467-0.415,0.986-0.623,1.453      c-0.623,1.609-1.297,3.113-1.972,4.67c-0.259,0.519-0.467,0.986-0.726,1.505c-0.727,1.505-1.453,3.01-2.18,4.462      c-0.207,0.415-0.415,0.778-0.623,1.194c-0.675,1.193-1.349,2.439-2.075,3.632c-0.259,0.519-0.571,1.037-0.882,1.609      c-0.778,1.297-1.609,2.594-2.439,3.892c-0.415,0.623-0.779,1.245-1.193,1.816c-0.778,1.193-1.609,2.335-2.387,3.476      c-0.519,0.675-0.986,1.349-1.505,2.024c-0.623,0.778-1.194,1.609-1.816,2.387c-0.623,0.778-1.245,1.557-1.868,2.335      l-0.156,0.156c-0.726,0.882-1.401,1.712-2.127,2.542c-0.623,0.675-1.193,1.349-1.816,2.024      c-0.675,0.727-1.349,1.505-2.076,2.231c-0.882,0.934-1.764,1.816-2.698,2.75c-0.467,0.467-0.986,0.986-1.453,1.453      c-1.193,1.142-2.439,2.231-3.632,3.321c-0.467,0.415-0.882,0.778-1.349,1.193c-0.778,0.675-1.609,1.401-2.439,2.076      c-0.156,0.104-0.311,0.259-0.467,0.363c-1.089,0.882-2.231,1.816-3.373,2.698c-17.694,13.906-31.756,31.808-41.459,51.992      c-1.193,2.439-2.335,4.929-3.373,7.42c-1.297,3.269-2.542,6.538-3.684,9.859c-0.415,1.245-0.882,2.491-1.297,3.788      c-2.491,6.901-4.41,13.958-5.811,21.067c-4.151,20.859-2.076,42.341,4.67,62.474c5.241,15.542,8.279,32.085,8.835,49.241      c12.43,3.789,26.779,6.7,49.191,6.909c31.156-0.29,46.737-5.8,63.232-11.632c17.303-6.118,35.194-12.444,70.454-12.444      c0.858,0,1.698,0.007,2.535,0.015c0.837-0.008,1.677-0.015,2.535-0.015c35.254,0,53.142,6.327,70.439,12.446      c16.93,5.988,32.921,11.645,65.772,11.645c2.132,0,4.19-0.025,6.185-0.071c-8.924-8.79-20.368-15.312-33.033-18.919      c10.593-19.039,10.554-42.205-2.432-61.932c-12.987-19.727-35.842-31.339-59.939-32.813c5.026-20.721-1.401-43.19-19.444-59.576      c-9.245-8.396-20.427-14.133-32.324-17.277c7.786-11.934,11.682-27.174,9.724-43.067c-2.471-20.047-13.567-36.289-28.41-44.54      c9.236-15.607,11.723-35.999,5.072-54.769s-20.864-31.469-37.016-35.38c5.65-17.692,3.737-38.163-6.699-54.541      c-10.436-16.378-26.92-24.779-43.423-24.119c1.729-18.725-4.471-38.061-18.073-51.073      c-13.601-13.013-31.378-16.617-47.25-11.424c-2.296-18.645-12.414-35.696-28.372-44.571      c-15.958-8.875-33.972-7.468-48.271,1.949c-6.183-17.458-19.619-31.212-36.986-35.421c-17.367-4.209-34.547,2.125-46.424,15.206      c-9.704-15.234-25.659-24.873-43.403-24.167c-17.744,0.707-33.07,11.591-41.818,27.56      c-12.648-12.105-30.174-17.057-47.241-11.476s-29.629,20.369-34.729,38.276c-14.84-8.256-32.896-8.227-48.273,1.895      c-15.376,10.122-24.427,27.937-25.576,46.719c-16.151-3.917-33.664,1.092-46.436,15.155      c-12.772,14.063-17.774,33.845-14.904,52.386c-16.503,0.654-32.433,10.346-41.842,27.514      c-9.409,17.168-10.065,37.742-3.346,54.941c-15.874,5.187-29.275,18.985-34.761,38.238c-5.487,19.254-1.758,39.397,8.41,54.232      c-14.302,9.411-24.377,26.496-25.615,46.691c-0.75,12.232,1.891,23.819,6.949,33.654c-0.285,3.234-0.394,6.479-0.135,9.726      c-24.096-1.481-48.572,7.228-64.562,25.178c-15.991,17.95-19.705,40.885-12.236,61.032c-23.789,3.675-45.136,17.319-55.7,38.128      c-2.647,5.215-4.46,10.57-5.489,15.95c10.501-2.042,23.038-3.384,39.257-3.384C155.637,753.815,173.522,760.143,190.818,766.262      z M343.457,603.063c7.771,0,14.071,6.3,14.071,14.071c0,7.771-6.3,14.071-14.071,14.071s-14.071-6.3-14.071-14.071      C329.386,609.363,335.686,603.063,343.457,603.063z M920.141,646.414c16.241,0,29.406,13.166,29.406,29.406      c0,16.241-13.166,29.406-29.406,29.406c-16.241,0-29.406-13.166-29.406-29.406C890.735,659.579,903.901,646.414,920.141,646.414      z M881.392,439.872c11.484,0,20.793,9.31,20.793,20.794c0,11.484-9.31,20.793-20.793,20.793      c-11.484,0-20.793-9.31-20.793-20.793C860.598,449.181,869.908,439.872,881.392,439.872z M824.464,632.473      c-16.241,0-29.406-13.166-29.406-29.406s13.166-29.406,29.406-29.406s29.406,13.166,29.406,29.406      S840.704,632.473,824.464,632.473z M636.92,216.854c16.241,0,29.406,13.166,29.406,29.406s-13.166,29.406-29.406,29.406      c-16.241,0-29.406-13.166-29.406-29.406S620.68,216.854,636.92,216.854z M561.901,294.547c9.912,0,17.947,8.035,17.947,17.947      c0,9.912-8.035,17.947-17.947,17.947c-9.912,0-17.947-8.035-17.947-17.947C543.954,302.583,551.989,294.547,561.901,294.547z       M461.597,259.952c16.241,0,29.406,13.166,29.406,29.406s-13.166,29.406-29.406,29.406s-29.406-13.166-29.406-29.406      S445.356,259.952,461.597,259.952z M269.347,460.665c16.241,0,29.406,13.166,29.406,29.406      c0,16.241-13.166,29.406-29.406,29.406s-29.406-13.166-29.406-29.406C239.941,473.831,253.107,460.665,269.347,460.665z       M248.592,678.415c16.241,0,29.406,13.166,29.406,29.406s-13.166,29.406-29.406,29.406s-29.406-13.166-29.406-29.406      S232.351,678.415,248.592,678.415z"/></g><g><path d="M531.574,777.892c31.137-0.292,46.711-5.801,63.201-11.632c17.301-6.118,35.191-12.444,70.447-12.444      c0.865,0,1.713,0.007,2.557,0.015c0.844-0.008,1.691-0.015,2.557-0.015c15.017,0,26.876,1.151,36.887,2.942      c-3.81-21.211-12.825-40.613-25.684-56.833c-43.745-55.177-69.655-122.341-69.655-192.755v-12.774      c0-17.995-14.588-32.583-32.583-32.583h0c-17.995,0-32.583,14.588-32.583,32.583v21.812c0,67.127-24.785,131.112-66.507,183.697      c-13.794,17.385-23.165,38.43-26.442,61.443c5.139,1.565,9.897,3.246,14.61,4.913      C484.865,772.091,500.439,777.6,531.574,777.892z M622.651,675.82c7.881,0,14.269,6.389,14.269,14.269      c0,7.881-6.389,14.269-14.269,14.269c-7.881,0-14.269-6.389-14.269-14.269C608.382,682.209,614.77,675.82,622.651,675.82z       M573.079,504.389c0-4.298,3.485-7.783,7.783-7.783s7.783,3.485,7.783,7.783v153.497c0,4.299-3.485,7.783-7.783,7.783      s-7.783-3.484-7.783-7.783V504.389z M533.576,675.82c7.881,0,14.269,6.389,14.269,14.269c0,7.881-6.389,14.269-14.269,14.269      s-14.269-6.389-14.269-14.269C519.307,682.209,525.695,675.82,533.576,675.82z"/></g><g><path d="M1200,768.27V1200H0V791.44c25.22-1.57,40.13-6.85,54.63-11.98c8.09-2.86,15.98-5.65,25.59-7.78      c10.49-2.32,23.03-3.86,40.17-3.86c32.84,0,48.83,5.65,65.76,11.64c17.3,6.12,35.18,12.45,70.43,12.45s53.14-6.33,70.44-12.45      c16.93-5.99,32.92-11.64,65.77-11.64c1.7,0,3.35,0.01,4.96,0.05h3.17l0.04-0.04c2.11,0.03,4.14,0.07,6.1,0.14      c20.33,0.72,33.6,3.84,45.48,7.66c3.8,1.22,7.46,2.52,11.17,3.83c16.86,5.96,34.29,12.12,67.8,12.43h0.13      c33.51-0.31,50.94-6.47,67.8-12.43c16.94-5.99,32.93-11.64,65.78-11.64c0.84,0,1.67,0,2.49,0.01h0.13      c0.83-0.01,1.65-0.01,2.49-0.01c16.33,0,28.48,1.39,38.66,3.53c10.31,2.17,18.59,5.1,27.11,8.11      c5.88,2.08,11.83,4.18,18.51,6.05c12.47,3.5,27.47,6.18,49.31,6.38h0.13c33.53-0.3,50.97-6.47,67.83-12.43      c16.94-5.99,32.93-11.64,65.79-11.64c0.83,0,1.65,0,2.47,0.01h0.13c0.81-0.01,1.63-0.01,2.47-0.01      c32.85,0,48.84,5.65,65.77,11.64c17.3,6.12,35.19,12.45,70.44,12.45c6.09,0,11.65-0.2,16.79-0.54      c24.62-1.65,39.34-6.85,53.65-11.91C1163.49,774.47,1176.94,769.72,1200,768.27z"/></g><g><path d="M736.496,461.581c0-23.642-19.166-42.808-42.808-42.808c-23.642,0-42.808,19.166-42.808,42.808l1.31-0.768      c6.853-4.018,14.146-6.95,21.641-8.819c-1.406,2.901-2.196,6.153-2.196,9.587c0,12.16,9.893,22.053,22.053,22.053      s22.053-9.893,22.053-22.053c0-3.434-0.79-6.686-2.196-9.587c7.495,1.869,14.787,4.801,21.641,8.819L736.496,461.581z"/></g></g></g></g><text x="0" y="1215" fill="#000000" font-size="5px" font-weight="bold" font-family="'Helvetica Neue', Helvetica, Arial-Unicode, Arial, Sans-serif">Created by fede macca</text><text x="0" y="1220" fill="#000000" font-size="5px" font-weight="bold" font-family="'Helvetica Neue', Helvetica, Arial-Unicode, Arial, Sans-serif">from the Noun Project</text></svg>